<?xml version="1.0" encoding="UTF-8" standalone="no"?>
<svg
   width="48pt"
   height="48pt"
   viewBox="0 0 16.933334 16.933333"
   version="1.1"
   id="svg979"
   inkscape:version="1.1 (c68e22c387, 2021-05-23)"
   sodipodi:docname="15 - Meadow.svg"
   xmlns:inkscape="http://www.inkscape.org/namespaces/inkscape"
   xmlns:sodipodi="http://sodipodi.sourceforge.net/DTD/sodipodi-0.dtd"
   xmlns="http://www.w3.org/2000/svg"
   xmlns:svg="http://www.w3.org/2000/svg"
   xmlns:rdf="http://www.w3.org/1999/02/22-rdf-syntax-ns#"
   xmlns:cc="http://creativecommons.org/ns#"
   xmlns:dc="http://purl.org/dc/elements/1.1/">
  <defs
     id="defs973" />
  <sodipodi:namedview
     id="base"
     pagecolor="#ffffff"
     bordercolor="#666666"
     borderopacity="1.0"
     inkscape:pageopacity="0.0"
     inkscape:pageshadow="2"
     inkscape:zoom="2.4847296"
     inkscape:cx="-51.313432"
     inkscape:cy="-10.463915"
     inkscape:document-units="pt"
     inkscape:current-layer="layer1"
     showgrid="false"
     units="pt"
     inkscape:window-width="1366"
     inkscape:window-height="716"
     inkscape:window-x="-8"
     inkscape:window-y="-8"
     inkscape:window-maximized="1"
     inkscape:document-rotation="0"
     inkscape:snap-bbox="true"
     inkscape:bbox-nodes="true"
     inkscape:snap-nodes="false"
     inkscape:pagecheckerboard="0">
    <inkscape:grid
       type="xygrid"
       id="grid1526" />
    <sodipodi:guide
       position="0.97013909,15.963209"
       orientation="56.666615,0"
       id="guide1528"
       inkscape:locked="false" />
    <sodipodi:guide
       position="0.97013909,0.97016731"
       orientation="0,56.666667"
       id="guide1530"
       inkscape:locked="false" />
    <sodipodi:guide
       position="15.963195,0.97016731"
       orientation="-56.666615,0"
       id="guide1532"
       inkscape:locked="false" />
    <sodipodi:guide
       position="15.963195,15.963209"
       orientation="0,-56.666667"
       id="guide1534"
       inkscape:locked="false" />
  </sodipodi:namedview>
  <metadata
     id="metadata976">
    <rdf:RDF>
      <cc:Work
         rdf:about="">
        <dc:format>image/svg+xml</dc:format>
        <dc:type
           rdf:resource="http://purl.org/dc/dcmitype/StillImage" />
        <dc:title />
      </cc:Work>
    </rdf:RDF>
  </metadata>
  <g
     inkscape:label="Layer 1"
     inkscape:groupmode="layer"
     id="layer1"
     transform="translate(0,-280.06668)">
    <path
       d="m 6.9994366,281.20042 c -0.8061107,0 -1.4653186,0.66111 -1.4653153,1.46722 6.6e-6,0.8061 0.6592078,1.46531 1.4653153,1.46531 0.8061044,0 1.4672155,-0.65921 1.467222,-1.46531 3.2e-6,-0.80611 -0.6611111,-1.46722 -1.467222,-1.46722 z m -3.7485817,0.32719 c -0.8061108,0 -1.4646732,0.65919 -1.4646766,1.46531 3.4e-6,0.15914 0.048163,0.31121 0.098665,0.46148 -0.5028176,0.4297 -0.91459923,0.98554 -0.91470676,1.65756 0,1.14554 0.85330886,2.09636 1.95608416,2.25525 v 1.15787 c 0.2097511,0.02 0.4567047,0.0447 0.6518161,0.0643 v -1.22279 c 1.1021788,-0.15973 1.956084,-1.10976 1.956084,-2.25462 1.108e-4,-0.67224 -0.4111069,-1.2277 -0.9140679,-1.65756 0.050454,-0.15006 0.098565,-0.30256 0.098662,-0.46148 0,-0.80611 -0.6617465,-1.46531 -1.4678606,-1.46531 z m 8.8510791,3.60153 c -0.201297,0.0111 -0.357073,0.0786 -0.459582,0.18524 -0.102509,0.10667 -0.171066,0.26039 -0.15404,0.52705 0.0117,0.18017 -0.125311,0.33519 -0.305539,0.34628 -0.09216,0.005 -0.182036,-0.0287 -0.247615,-0.0936 -0.0058,-0.004 -0.01096,-0.006 -0.01656,-0.01 -0.135988,-0.10495 -0.306562,-0.16869 -0.495866,-0.16869 -0.09244,0 -0.155862,0.0219 -0.209418,0.0796 -0.05356,0.0576 -0.118017,0.17675 -0.117758,0.43539 -6.53e-4,0.17912 -0.1455188,0.32465 -0.3246379,0.32527 l -0.050922,0.005 c -0.2036598,0.0147 -0.3028167,0.0737 -0.3602817,0.1324 -0.091373,0.13886 -0.1337625,0.26022 -0.014634,0.43347 0.03805,0.0504 0.066442,0.0625 0.105662,0.0649 2.1560126,-0.58522 3.9052266,-0.46154 5.6753836,-0.62126 -0.09376,-0.21273 -0.17585,-0.47377 -0.298535,-0.58179 -0.205622,-0.18108 -0.474594,-0.26588 -1.063022,-0.10828 -0.159095,0.0414 -0.324303,-0.042 -0.385105,-0.19478 -0.0096,-0.0111 -0.01808,-0.0238 -0.0261,-0.0363 -0.310435,-0.50879 -0.848842,-0.74108 -1.251435,-0.71928 z m 3.861245,2.2438 -0.305539,0.0197 c -2.780432,0.18704 -4.819638,0.22156 -6.9802852,1.05857 0.045198,0.053 0.087004,0.10926 0.1222158,0.16996 0.3457692,-0.14546 0.6427103,-0.0627 0.9478059,0.0898 0.2672635,-0.30872 0.5801435,-0.34633 0.9102515,-0.31636 0.413649,0.0756 0.590806,0.30245 0.751753,0.67983 0.413388,0.1483 0.595919,0.40123 0.68364,0.76703 0.04477,0.24689 -0.0369,0.46107 -0.138126,0.67855 0.212372,0.0579 0.432487,0.11419 0.699555,0.1604 0.837545,0.0998 1.781192,0.17796 3.01274,0.30109 0.0065,4.3e-4 0.01317,10e-4 0.01975,0.002 l 0.276257,0.0255 z m -8.8001528,0.67219 c -0.183848,0 -0.3246338,0.14077 -0.3246338,0.32464 6.519e-4,0.18098 -0.1461958,0.32788 -0.3271824,0.32717 -0.09145,-3.6e-4 -0.1785227,-0.0392 -0.2399759,-0.10692 -0.00766,-0.005 -0.015024,-0.01 -0.022293,-0.0159 -0.1278766,-0.0987 -0.3086349,-0.093 -0.4283899,0.0267 -0.090733,0.0907 -0.073567,0.21412 -0.048378,0.31254 0.8711751,0.16472 1.726182,0.37607 2.8077763,0.78167 0.8568387,0.32132 1.5592485,0.52515 2.2444375,0.67855 0.219812,0.0498 0.570995,0.077 0.630809,-0.37047 0,-0.18377 -0.142547,-0.32461 -0.327179,-0.32463 -0.180248,-3.6e-4 -0.325981,-0.14693 -0.325274,-0.32717 1.41e-4,-0.004 3.27e-4,-0.009 6.53e-4,-0.0127 -2.29e-4,-0.001 -3.26e-4,-0.004 -6.53e-4,-0.005 -0.0094,-0.1741 -0.149239,-0.30744 -0.327182,-0.30744 -0.184128,0 -0.325285,0.14046 -0.324633,0.32717 6.52e-4,0.18 -0.144638,0.32649 -0.3246342,0.32719 -0.1532874,6.5e-4 -0.2863109,-0.10556 -0.319543,-0.25525 l -0.00333,-0.01 c -0.021679,-0.0739 -0.069706,-0.14356 -0.1464043,-0.18778 -0.1590928,-0.0918 -0.3529393,-0.0393 -0.4449399,0.12035 -0.090534,0.15557 -0.2900158,0.20829 -0.4455782,0.11776 -0.1054181,-0.0607 -0.16825,-0.17506 -0.162954,-0.29664 -2.38e-4,-0.002 -3.259e-4,-0.004 -6.519e-4,-0.006 -0.010716,-0.26234 -0.2214545,-0.4666 -0.4882266,-0.46659 -0.1809865,7.3e-4 -0.3278831,-0.14618 -0.3271823,-0.32717 v -0.0337 c -0.017436,-0.16413 -0.1528119,-0.2909 -0.3246338,-0.2909 z m -6.19288916,0.9459 v 5.24635 c 0,0.89609 0.73280116,1.6289 1.62890166,1.6289 H 14.332369 c 0.8961,0 1.63081,-0.73281 1.63081,-1.6289 v -2.57671 l -0.358371,-0.0337 c -3.250517,-0.32505 -4.612659,-0.33056 -7.2533612,-1.32082 -2.5738265,-0.96519 -3.8202196,-0.95776 -7.0878653,-1.28454 z"
       style="color:#000000;font-style:normal;font-variant:normal;font-weight:normal;font-stretch:normal;font-size:medium;line-height:normal;font-family:sans-serif;font-variant-ligatures:normal;font-variant-position:normal;font-variant-caps:normal;font-variant-numeric:normal;font-variant-alternates:normal;font-variant-east-asian:normal;font-feature-settings:normal;font-variation-settings:normal;text-indent:0;text-align:start;text-decoration:none;text-decoration-line:none;text-decoration-style:solid;text-decoration-color:#000000;letter-spacing:normal;word-spacing:normal;text-transform:none;writing-mode:lr-tb;direction:ltr;text-orientation:mixed;dominant-baseline:auto;baseline-shift:baseline;text-anchor:start;white-space:normal;shape-padding:0;shape-margin:0;inline-size:0;clip-rule:nonzero;display:inline;overflow:visible;visibility:visible;isolation:auto;mix-blend-mode:normal;color-interpolation:sRGB;color-interpolation-filters:linearRGB;solid-color:#000000;solid-opacity:1;vector-effect:none;fill:#000000;fill-opacity:1;fill-rule:nonzero;stroke:none;stroke-width:0.651817;stroke-linecap:round;stroke-linejoin:round;stroke-miterlimit:4;stroke-dasharray:none;stroke-dashoffset:0;stroke-opacity:1;color-rendering:auto;image-rendering:auto;shape-rendering:auto;text-rendering:auto;enable-background:accumulate;stop-color:#000000"
       id="path195" />
  </g>
</svg>
