<?xml version="1.0" ?><svg viewBox="0 0 64 64" xmlns="http://www.w3.org/2000/svg"><title/><g data-name="Layer 6" id="Layer_6"><path d="M22,47h4a1,1,0,0,0,1-1V42a1,1,0,0,0-1-1H22a1,1,0,0,0-1,1v4A1,1,0,0,0,22,47Zm1-4h2v2H23Z"/><path d="M30,47h4a1,1,0,0,0,1-1V42a1,1,0,0,0-1-1H30a1,1,0,0,0-1,1v4A1,1,0,0,0,30,47Zm1-4h2v2H31Z"/><path d="M22,55h4a1,1,0,0,0,1-1V50a1,1,0,0,0-1-1H22a1,1,0,0,0-1,1v4A1,1,0,0,0,22,55Zm1-4h2v2H23Z"/><path d="M30,55h4a1,1,0,0,0,1-1V50a1,1,0,0,0-1-1H30a1,1,0,0,0-1,1v4A1,1,0,0,0,30,55Zm1-4h2v2H31Z"/><polygon points="49.71 13.71 51.41 12 53 12 53 13.59 51.29 15.29 52.71 16.71 54 15.41 55.29 16.71 56.71 15.29 55 13.59 55 12 56.59 12 58.29 13.71 59.71 12.29 58.41 11 59.71 9.71 58.29 8.29 56.59 10 55 10 55 8.41 56.71 6.71 55.29 5.29 54 6.59 52.71 5.29 51.29 6.71 53 8.41 53 10 51.41 10 49.71 8.29 48.29 9.71 49.59 11 48.29 12.29 49.71 13.71"/><path d="M57,24a3,3,0,1,0,3-3A3,3,0,0,0,57,24Zm3-1a1,1,0,1,1-1,1A1,1,0,0,1,60,23Z"/><path d="M38,15a3,3,0,1,0-3-3A3,3,0,0,0,38,15Zm0-4a1,1,0,1,1-1,1A1,1,0,0,1,38,11Z"/><path d="M16,7a3,3,0,1,0-3-3A3,3,0,0,0,16,7Zm0-4a1,1,0,1,1-1,1A1,1,0,0,1,16,3Z"/><path d="M61,54a1,1,0,0,0-.29-.71l-6-6a1,1,0,0,0-1.42,0L51,49.59l-2.29-2.3a1,1,0,0,0-1.42,0l-6,6A1,1,0,0,0,41,54v7H39V41H62a1,1,0,0,0,.92-.62,1,1,0,0,0-.21-1.09L44.18,20.77a9.44,9.44,0,0,0-13.36,0L29,22.59V12a1,1,0,0,0-1-1H4a1,1,0,0,0-1,1V61H1v2H63V61H61Zm-7-4.59,5,5V61H55V54a1,1,0,0,0-.29-.71L52.41,51Zm-11,5,5-5,5,5V61H43ZM20,23v8H12V23Zm-8-2V13h8v8ZM37,57H19V39H37ZM18,37a1,1,0,0,0-1,1v3H12V33h8v4Zm4,0V33h5v4Zm0-6V23h5v8ZM10,31H5V23h5Zm0,2v8H5V33Zm0,10v8H5V43Zm2,0h5v8H12Zm7,16H37v2H19ZM39,39V38a1,1,0,0,0-1-1H29V34h1a4,4,0,0,0,4-4,1,1,0,0,1,2,0v1a3,3,0,0,0,6,0V28a1,1,0,0,1,2,0,3,3,0,0,0,3,3h4.59l8,8ZM32.23,22.18a7.46,7.46,0,0,1,10.54,0L49.59,29H47a1,1,0,0,1-1-1,3,3,0,0,0-6,0v3a1,1,0,0,1-2,0V30a3,3,0,0,0-6,0,2,2,0,0,1-2,2H29V25.41ZM27,21H22V13h5ZM10,13v8H5V13ZM5,53H17v8H5Z"/><path d="M50,54H46a1,1,0,0,0-1,1v4a1,1,0,0,0,1,1h4a1,1,0,0,0,1-1V55A1,1,0,0,0,50,54Zm-1,4H47V56h2Z"/></g></svg>